<svg width="23" height="23" viewBox="0 0 23 23" fill="none" xmlns="http://www.w3.org/2000/svg">
<g clip-path="url(#clip0_108_425)">
<path d="M3.35417 23H17.7292C18.6201 22.9974 19.4737 22.6415 20.1025 22.0103C20.7314 21.3792 21.0841 20.5243 21.0833 19.6333V12.4104C21.0833 12.1562 20.9824 11.9125 20.8026 11.7327C20.6229 11.553 20.3792 11.452 20.125 11.452C19.8708 11.452 19.6271 11.553 19.4474 11.7327C19.2676 11.9125 19.1667 12.1562 19.1667 12.4104V19.6333C19.1679 20.0161 19.0173 20.3838 18.7478 20.6556C18.4783 20.9275 18.112 21.0813 17.7292 21.0833H3.35417C2.97138 21.0813 2.60504 20.9275 2.33554 20.6556C2.06604 20.3838 1.91539 20.0161 1.91667 19.6333V5.28325C1.91539 4.90046 2.06604 4.53281 2.33554 4.26097C2.60504 3.98913 2.97138 3.83532 3.35417 3.83329H10.5417C10.7958 3.83329 11.0396 3.73233 11.2193 3.5526C11.399 3.37288 11.5 3.12913 11.5 2.87496C11.5 2.62079 11.399 2.37704 11.2193 2.19732C11.0396 2.01759 10.7958 1.91663 10.5417 1.91663H3.35417C2.46321 1.91916 1.60965 2.27507 0.980815 2.90625C0.351978 3.53742 -0.000763879 4.39229 1.2421e-06 5.28325V19.6333C-0.000763879 20.5243 0.351978 21.3792 0.980815 22.0103C1.60965 22.6415 2.46321 22.9974 3.35417 23Z" fill="#2D2D26"/>
<path d="M9.06105 10.1046L8.30492 13.568C8.2707 13.7251 8.27655 13.8883 8.32193 14.0425C8.36732 14.1968 8.45078 14.3371 8.56463 14.4507C8.68005 14.5613 8.82045 14.6425 8.97393 14.6874C9.1274 14.7323 9.28944 14.7395 9.4463 14.7084L12.902 13.9504C13.0815 13.911 13.2458 13.8209 13.3755 13.6907L22.1097 4.95645C22.3767 4.68947 22.5885 4.37252 22.7331 4.02367C22.8776 3.67483 22.952 3.30094 22.952 2.92335C22.952 2.54575 22.8776 2.17186 22.7331 1.82302C22.5885 1.47417 22.3767 1.15722 22.1097 0.890241C21.5623 0.367121 20.8343 0.0751953 20.0771 0.0751953C19.3199 0.0751953 18.5919 0.367121 18.0445 0.890241L9.32363 9.63312C9.19274 9.76188 9.1016 9.92554 9.06105 10.1046ZM19.3995 2.24628C19.5819 2.07162 19.8246 1.97411 20.0771 1.97411C20.3296 1.97411 20.5723 2.07162 20.7546 2.24628C20.9319 2.42705 21.0312 2.67015 21.0312 2.92335C21.0312 3.17654 20.9319 3.41964 20.7546 3.60041L20.0771 4.27795L18.722 2.92287L19.3995 2.24628ZM10.8704 10.7889L17.3621 4.28082L18.7038 5.6292L12.2092 12.1392L10.489 12.5167L10.8704 10.7889Z" fill="#2D2D26"/>
</g>
<defs>
<clipPath id="clip0_108_425">
<rect width="23" height="23" fill="white"/>
</clipPath>
</defs>
</svg>
