<svg width="32" height="33" viewBox="0 0 32 33" fill="none" xmlns="http://www.w3.org/2000/svg">
<rect x="0.5" y="0.5" width="31" height="31.5" rx="7.5" stroke="#2D2D26"/>
<path d="M22.22 13.3529L21.62 13.1629C21.655 13.0279 21.685 12.8929 21.715 12.7579C22.165 10.5679 21.87 8.80287 20.865 8.22287C19.86 7.64287 18.32 8.22287 16.725 9.63787C16.57 9.76787 16.415 9.91287 16.265 10.0579L15.955 9.77787C14.285 8.27787 12.61 7.66787 11.605 8.24787C10.6 8.82787 10.355 10.4629 10.755 12.5379C10.795 12.7379 10.84 12.9429 10.89 13.1529C10.655 13.2179 10.425 13.2929 10.205 13.3679C8.255 14.0529 7 15.1229 7 16.2479C7 17.3729 8.345 18.5429 10.385 19.2479C10.545 19.3029 10.715 19.3529 10.885 19.4029C10.83 19.6279 10.78 19.8479 10.74 20.0629C10.355 22.1029 10.655 23.7229 11.62 24.2779C12.585 24.8329 14.28 24.2779 15.905 22.8429L16.29 22.4829C16.455 22.6479 16.625 22.7979 16.79 22.9429C18.36 24.2929 19.915 24.8429 20.875 24.2829C21.835 23.7229 22.19 21.9729 21.775 19.8579C21.74 19.6929 21.705 19.5279 21.66 19.3579L22.005 19.2479C24.13 18.5479 25.505 17.4079 25.505 16.2479C25.505 15.0879 24.215 14.0379 22.22 13.3529ZM21.755 18.4829L21.44 18.5829C21.1848 17.7838 20.874 17.0036 20.51 16.2479C20.8625 15.4994 21.1632 14.7275 21.41 13.9379C21.6 13.9929 21.785 14.0479 21.96 14.1079C23.675 14.6979 24.72 15.5729 24.72 16.2429C24.72 16.9129 23.59 17.8779 21.755 18.4829ZM20.995 19.9829C21.1743 20.7856 21.2031 21.6146 21.08 22.4279C21.0631 22.6507 21.0007 22.8678 20.8967 23.0655C20.7926 23.2633 20.6491 23.4377 20.475 23.5779C19.89 23.9129 18.645 23.4729 17.3 22.3179C17.145 22.1829 16.99 22.0429 16.835 21.8929C17.3943 21.2709 17.9121 20.6128 18.385 19.9229C19.226 19.8507 20.0612 19.7221 20.885 19.5379C20.935 19.6929 20.97 19.8429 21 19.9879L20.995 19.9829ZM13.31 23.5229C13.1088 23.6185 12.8902 23.6722 12.6676 23.6808C12.445 23.6894 12.223 23.6527 12.015 23.5729C11.43 23.2329 11.185 21.9329 11.515 20.1929C11.5517 19.9929 11.5967 19.7879 11.65 19.5779C12.4742 19.7547 13.3094 19.875 14.15 19.9379C14.6425 20.6265 15.1786 21.2828 15.755 21.9029L15.405 22.2279C14.7916 22.7838 14.0815 23.2227 13.31 23.5229ZM10.64 18.4779C9.85737 18.232 9.12681 17.8438 8.485 17.3329C8.3021 17.2081 8.14627 17.0477 8.02685 16.8612C7.90742 16.6748 7.82687 16.4662 7.79 16.2479C7.79 15.5729 8.79 14.7129 10.47 14.1279C10.675 14.0579 10.89 13.9929 11.11 13.9279C11.3592 14.72 11.6598 15.4949 12.01 16.2479C11.6528 17.0161 11.3487 17.808 11.1 18.6179C10.94 18.5779 10.79 18.5279 10.64 18.4779ZM11.535 12.3879C11.19 10.6079 11.42 9.26787 12 8.93287C12.58 8.59787 14 9.08787 15.43 10.3679C15.525 10.4479 15.615 10.5329 15.71 10.6229C15.142 11.2369 14.6158 11.8884 14.135 12.5729C13.3041 12.6466 12.479 12.7753 11.665 12.9579C11.615 12.7479 11.575 12.5729 11.535 12.3879ZM19.535 14.3579C19.3537 14.0453 19.1653 13.7369 18.97 13.4329C19.56 13.5079 20.13 13.6079 20.66 13.7279C20.5 14.2279 20.3 14.7729 20.065 15.3229C19.885 15.0029 19.705 14.6829 19.52 14.3579H19.535ZM16.255 11.1879C16.6405 11.6074 17.0043 12.0463 17.345 12.5029C16.98 12.5029 16.615 12.4779 16.245 12.4779C15.875 12.4779 15.515 12.4779 15.155 12.5029C15.525 12.0279 15.895 11.5879 16.255 11.1879ZM12.98 14.3629C12.7967 14.6962 12.63 15.0162 12.48 15.3229C12.2588 14.7972 12.062 14.2616 11.89 13.7179C12.42 13.6029 12.985 13.5029 13.57 13.4329C13.375 13.7329 13.185 14.0479 13.005 14.3629H12.98ZM13.56 19.0879C12.9872 19.0266 12.418 18.9348 11.855 18.8129C12.02 18.2879 12.22 17.7379 12.455 17.1829C12.62 17.5029 12.795 17.8229 12.955 18.1379C13.18 18.4629 13.37 18.7779 13.57 19.0879H13.56ZM16.275 21.3329C15.8809 20.9071 15.5088 20.4615 15.16 19.9979C15.515 19.9979 15.88 20.0229 16.245 20.0229C16.61 20.0229 16.995 20.0229 17.36 19.9979C17.0254 20.4614 16.6665 20.9071 16.285 21.3329H16.275ZM20.05 17.1529C20.284 17.6854 20.491 18.2294 20.67 18.7829C20.1005 18.91 19.5247 19.0068 18.945 19.0729C19.135 18.7679 19.325 18.4579 19.51 18.1329C19.695 17.8079 19.89 17.4779 20.06 17.1529H20.05ZM18.84 17.7479C18.55 18.2479 18.25 18.7479 17.95 19.1829C17.4 19.2179 16.835 19.2379 16.255 19.2379C15.675 19.2379 15.12 19.2379 14.58 19.1879C14.255 18.7179 13.96 18.2479 13.675 17.7479C13.39 17.2479 13.125 16.7479 12.885 16.2479C13.125 15.7479 13.385 15.2479 13.67 14.7479C13.96 14.2545 14.26 13.7795 14.57 13.3229C15.12 13.2779 15.685 13.2579 16.255 13.2579C16.83 13.2579 17.395 13.2579 17.945 13.3229C18.25 13.7729 18.55 14.2479 18.835 14.7429C19.12 15.2379 19.39 15.7429 19.635 16.2429C19.3817 16.7395 19.1167 17.2412 18.84 17.7479ZM20.47 8.90787C21.09 9.26787 21.33 10.7079 20.94 12.5979C20.94 12.7179 20.885 12.8429 20.855 12.9679C20.0315 12.7803 19.1962 12.6484 18.355 12.5729C17.8783 11.8894 17.3572 11.238 16.795 10.6229C16.935 10.4879 17.075 10.3579 17.22 10.2329C18.61 9.04287 19.885 8.57287 20.47 8.90787Z" fill="#2D2D26"/>
<path d="M16 17.9241C16.914 17.9241 17.655 17.1677 17.655 16.2346C17.655 15.3016 16.914 14.5452 16 14.5452C15.0859 14.5452 14.345 15.3016 14.345 16.2346C14.345 17.1677 15.0859 17.9241 16 17.9241Z" fill="#2D2D26"/>
</svg>
