<svg width="32" height="33" viewBox="0 0 32 33" fill="none" xmlns="http://www.w3.org/2000/svg">
<path d="M0.5 8.25C0.5 4.10786 3.85786 0.75 8 0.75H24C28.1421 0.75 31.5 4.10786 31.5 8.25V24.25C31.5 28.3921 28.1421 31.75 24 31.75H8C3.85786 31.75 0.5 28.3921 0.5 24.25V8.25Z" stroke="#2D2D26"/>
<g clip-path="url(#clip0_108_355)">
<path d="M19.1875 19.4375C20.9479 19.4375 22.375 18.0104 22.375 16.25C22.375 14.4896 20.9479 13.0625 19.1875 13.0625C17.4271 13.0625 16 14.4896 16 16.25C16 18.0104 17.4271 19.4375 19.1875 19.4375Z" stroke="#2D2D26" stroke-linecap="round" stroke-linejoin="round"/>
<path d="M16 13.0625V6.68762H12.8125C11.9671 6.68762 11.1564 7.02345 10.5586 7.62122C9.96082 8.21899 9.625 9.02974 9.625 9.87512C9.625 10.7205 9.96082 11.5313 10.5586 12.129C11.1564 12.7268 11.9671 13.0626 12.8125 13.0626L16 13.0625Z" stroke="#2D2D26" stroke-linecap="round" stroke-linejoin="round"/>
<path d="M16 13.0625V19.4375L12.8125 19.4375C11.9671 19.4375 11.1564 19.1017 10.5586 18.5039C9.96082 17.9062 9.625 17.0954 9.625 16.25C9.625 15.4047 9.96082 14.5939 10.5586 13.9961C11.1564 13.3984 11.9671 13.0625 12.8125 13.0625H16ZM16 13.0625V6.68762H19.1875C20.0329 6.68762 20.8436 7.02345 21.4414 7.62122C22.0392 8.21899 22.375 9.02974 22.375 9.87512C22.375 10.7205 22.0392 11.5313 21.4414 12.129C20.8436 12.7268 20.0329 13.0626 19.1875 13.0626L16 13.0625Z" stroke="#2D2D26" stroke-linecap="round" stroke-linejoin="round"/>
<path d="M16 19.4374V22.6249C16 23.2553 15.8131 23.8716 15.4628 24.3958C15.1126 24.92 14.6148 25.3286 14.0323 25.5698C13.4499 25.8111 12.809 25.8742 12.1907 25.7512C11.5724 25.6282 11.0044 25.3247 10.5586 24.8789C10.1128 24.4331 9.80925 23.8651 9.68625 23.2468C9.56326 22.6285 9.62638 21.9876 9.86763 21.4052C10.1089 20.8227 10.5174 20.3249 11.0416 19.9747C11.5658 19.6244 12.1821 19.4375 12.8125 19.4375L16 19.4374Z" stroke="#2D2D26" stroke-linecap="round" stroke-linejoin="round"/>
</g>
<defs>
<clipPath id="clip0_108_355">
<rect width="24" height="24" fill="white" transform="translate(4 4.25)"/>
</clipPath>
</defs>
</svg>
