<svg width="25" height="24" viewBox="0 0 25 24" fill="none" xmlns="http://www.w3.org/2000/svg">
<path d="M12.75 2.25002C10.3915 2.25074 8.11316 3.10636 6.3372 4.65834C4.56125 6.21032 3.40806 8.35344 3.09131 10.6906C2.77456 13.0278 3.31573 15.4005 4.61454 17.3692C5.91335 19.3379 7.88175 20.7691 10.155 21.3975C10.2525 21.4342 10.3566 21.4502 10.4607 21.4444C10.5647 21.4386 10.6664 21.4112 10.7593 21.364C10.8522 21.3167 10.9342 21.2506 11.0001 21.1699C11.066 21.0892 11.1144 20.9956 11.1421 20.8951C11.1698 20.7947 11.1763 20.6896 11.1611 20.5865C11.146 20.4834 11.1095 20.3845 11.054 20.2963C10.9986 20.2081 10.9253 20.1324 10.839 20.0741C10.7526 20.0158 10.6551 19.9761 10.5525 19.9575C8.66488 19.4406 7.02249 18.2695 5.91869 16.6534C4.8149 15.0372 4.3216 13.0813 4.52691 11.135C4.73222 9.18866 5.62277 7.37872 7.03948 6.02845C8.4562 4.67819 10.3068 3.87554 12.2607 3.76389C14.2147 3.65223 16.1446 4.23885 17.7059 5.41894C19.2673 6.59904 20.3582 8.29575 20.7839 10.206C21.2096 12.1163 20.9423 14.1157 20.0298 15.847C19.1173 17.5784 17.619 18.929 15.8025 19.6575C15.8498 18.672 15.7742 17.6844 15.5775 16.7175C16.6436 16.4811 17.5941 15.881 18.2661 15.0202C18.938 14.1594 19.2894 13.0916 19.26 12C19.3141 10.9733 19.0382 9.95612 18.4725 9.09752C18.5774 8.24562 18.4744 7.381 18.1725 6.57752C18.1162 6.40998 18.0026 6.2677 17.8517 6.17576C17.7007 6.08383 17.5222 6.04815 17.3475 6.07502C16.4429 6.19856 15.5785 6.52689 14.82 7.03502C14.1443 6.85537 13.4491 6.75965 12.75 6.75002C11.99 6.77004 11.235 6.87827 10.5 7.07252C9.77096 6.51481 8.88275 6.20472 7.96501 6.18752C7.8033 6.17797 7.64286 6.22103 7.50766 6.31026C7.37247 6.39949 7.2698 6.53009 7.21501 6.68252C6.93995 7.44811 6.84499 8.26679 6.93751 9.07502C6.39936 9.95408 6.12595 10.9696 6.15001 12C6.1778 13.0861 6.55894 14.1335 7.23566 14.9835C7.91237 15.8334 8.84776 16.4396 9.90001 16.71C9.85184 16.9053 9.81428 17.1031 9.78751 17.3025C9.03751 17.3475 8.60251 16.89 8.04751 16.1925C7.7208 15.6435 7.20254 15.2348 6.59251 15.045C6.40307 15.0112 6.20789 15.0516 6.04736 15.1577C5.88682 15.2638 5.7732 15.4275 5.73001 15.615C5.68847 15.8027 5.72055 15.9991 5.81964 16.1638C5.91873 16.3285 6.07726 16.4488 6.26251 16.5C6.38251 16.5 6.67501 16.89 6.84001 17.1075C7.13885 17.594 7.55046 18.0013 8.04001 18.295C8.52956 18.5887 9.08266 18.7602 9.65251 18.795C9.98214 18.7946 10.3102 18.7492 10.6275 18.66C10.7052 18.637 10.7787 18.6015 10.845 18.555C10.8998 18.5117 10.9456 18.4583 10.98 18.3975C11.0039 18.3788 11.0242 18.3559 11.04 18.33C11.0595 18.2892 11.0746 18.2465 11.085 18.2025C11.1034 18.1536 11.1185 18.1035 11.13 18.0525C11.1275 17.5542 11.2459 17.0626 11.475 16.62C11.5682 16.5111 11.6282 16.3777 11.6479 16.2357C11.6676 16.0937 11.6462 15.949 11.5863 15.8188C11.5263 15.6885 11.4302 15.5782 11.3095 15.5009C11.1888 15.4236 11.0484 15.3825 10.905 15.3825C10.0358 15.3335 9.21722 14.9576 8.61353 14.3302C8.00984 13.7029 7.66566 12.8705 7.65001 12C7.61286 11.1985 7.84232 10.4073 8.30251 9.75002C8.37714 9.66632 8.43205 9.56694 8.46321 9.45921C8.49436 9.35148 8.50095 9.23814 8.48251 9.12752C8.3962 8.66905 8.3962 8.19849 8.48251 7.74002C8.97329 7.84395 9.42528 8.08294 9.78751 8.43002C9.88528 8.52384 10.0066 8.58943 10.1387 8.6198C10.2708 8.65017 10.4086 8.6442 10.5375 8.60252C11.2582 8.39693 12.0011 8.27859 12.75 8.25002C13.4241 8.26687 14.0927 8.37537 14.7375 8.57252C14.8632 8.61908 14.999 8.63112 15.1309 8.60737C15.2628 8.58363 15.386 8.52498 15.4875 8.43752C15.9245 8.07749 16.4373 7.82108 16.9875 7.68752C17.1 8.15839 17.1 8.64915 16.9875 9.12002C16.9582 9.2551 16.9649 9.39552 17.007 9.52717C17.0492 9.65882 17.1252 9.77707 17.2275 9.87002C17.6678 10.4872 17.858 11.2482 17.76 12C17.7777 12.4408 17.7045 12.8806 17.545 13.2919C17.3855 13.7033 17.1432 14.0774 16.833 14.3911C16.5228 14.7048 16.1514 14.9514 15.7419 15.1155C15.3324 15.2796 14.8935 15.3577 14.4525 15.345C14.2993 15.3445 14.1495 15.391 14.0235 15.4781C13.8975 15.5653 13.8011 15.689 13.7475 15.8325C13.6931 15.9761 13.684 16.1329 13.7216 16.2818C13.7592 16.4307 13.8415 16.5644 13.9575 16.665C14.4 17.0475 14.3325 19.665 14.31 20.685C14.3071 20.8015 14.3313 20.917 14.3808 21.0224C14.4302 21.1279 14.5036 21.2203 14.595 21.2925C14.7279 21.3957 14.8917 21.4512 15.06 21.45C15.1223 21.4573 15.1852 21.4573 15.2475 21.45C17.5594 20.8634 19.5761 19.4497 20.9159 17.4764C22.2557 15.5031 22.8257 13.1071 22.5181 10.7418C22.2104 8.37661 21.0464 6.20619 19.2463 4.64132C17.4463 3.07644 15.135 2.22568 12.75 2.25002Z" fill="#DADAD4"/>
</svg>
