<svg width="25" height="24" viewBox="0 0 25 24" fill="none" xmlns="http://www.w3.org/2000/svg">
<path d="M12.5 2.25002C10.1415 2.25074 7.86316 3.10636 6.0872 4.65834C4.31125 6.21032 3.15806 8.35344 2.84131 10.6906C2.52456 13.0278 3.06573 15.4005 4.36454 17.3692C5.66335 19.3379 7.63175 20.7691 9.90501 21.3975C10.0025 21.4342 10.1066 21.4502 10.2107 21.4444C10.3147 21.4386 10.4164 21.4112 10.5093 21.364C10.6022 21.3167 10.6842 21.2506 10.7501 21.1699C10.816 21.0892 10.8644 20.9956 10.8921 20.8951C10.9198 20.7947 10.9263 20.6896 10.9111 20.5865C10.896 20.4834 10.8595 20.3845 10.804 20.2963C10.7486 20.2081 10.6753 20.1324 10.589 20.0741C10.5026 20.0158 10.4051 19.9761 10.3025 19.9575C8.41488 19.4406 6.77249 18.2695 5.66869 16.6534C4.5649 15.0372 4.0716 13.0813 4.27691 11.135C4.48222 9.18866 5.37277 7.37872 6.78948 6.02845C8.2062 4.67819 10.0568 3.87554 12.0107 3.76389C13.9647 3.65223 15.8946 4.23885 17.4559 5.41894C19.0173 6.59904 20.1082 8.29575 20.5339 10.206C20.9596 12.1163 20.6923 14.1157 19.7798 15.847C18.8673 17.5784 17.369 18.929 15.5525 19.6575C15.5998 18.672 15.5242 17.6844 15.3275 16.7175C16.3936 16.4811 17.3441 15.881 18.0161 15.0202C18.688 14.1594 19.0394 13.0916 19.01 12C19.0641 10.9733 18.7882 9.95612 18.2225 9.09752C18.3274 8.24562 18.2244 7.381 17.9225 6.57752C17.8662 6.40998 17.7526 6.2677 17.6017 6.17576C17.4507 6.08383 17.2722 6.04815 17.0975 6.07502C16.1929 6.19856 15.3285 6.52689 14.57 7.03502C13.8943 6.85537 13.1991 6.75965 12.5 6.75002C11.74 6.77004 10.985 6.87827 10.25 7.07252C9.52096 6.51481 8.63275 6.20472 7.71501 6.18752C7.5533 6.17797 7.39286 6.22103 7.25766 6.31026C7.12247 6.39949 7.0198 6.53009 6.96501 6.68252C6.68995 7.44811 6.59499 8.26679 6.68751 9.07502C6.14936 9.95408 5.87595 10.9696 5.90001 12C5.9278 13.0861 6.30894 14.1335 6.98566 14.9835C7.66237 15.8334 8.59776 16.4396 9.65001 16.71C9.60184 16.9053 9.56428 17.1031 9.53751 17.3025C8.78751 17.3475 8.35251 16.89 7.79751 16.1925C7.4708 15.6435 6.95254 15.2348 6.34251 15.045C6.15307 15.0112 5.95789 15.0516 5.79736 15.1577C5.63682 15.2638 5.5232 15.4275 5.48001 15.615C5.43847 15.8027 5.47055 15.9991 5.56964 16.1638C5.66873 16.3285 5.82726 16.4488 6.01251 16.5C6.13251 16.5 6.42501 16.89 6.59001 17.1075C6.88885 17.594 7.30046 18.0013 7.79001 18.295C8.27956 18.5887 8.83266 18.7602 9.40251 18.795C9.73214 18.7946 10.0602 18.7492 10.3775 18.66C10.4552 18.637 10.5287 18.6015 10.595 18.555C10.6498 18.5117 10.6956 18.4583 10.73 18.3975C10.7539 18.3788 10.7742 18.3559 10.79 18.33C10.8095 18.2892 10.8246 18.2465 10.835 18.2025C10.8534 18.1536 10.8685 18.1035 10.88 18.0525C10.8775 17.5542 10.9959 17.0626 11.225 16.62C11.3182 16.5111 11.3782 16.3777 11.3979 16.2357C11.4176 16.0937 11.3962 15.949 11.3363 15.8188C11.2763 15.6885 11.1802 15.5782 11.0595 15.5009C10.9388 15.4236 10.7984 15.3825 10.655 15.3825C9.78577 15.3335 8.96722 14.9576 8.36353 14.3302C7.75984 13.7029 7.41566 12.8705 7.40001 12C7.36286 11.1985 7.59232 10.4073 8.05251 9.75002C8.12714 9.66632 8.18205 9.56694 8.21321 9.45921C8.24436 9.35148 8.25095 9.23814 8.23251 9.12752C8.1462 8.66905 8.1462 8.19849 8.23251 7.74002C8.72329 7.84395 9.17528 8.08294 9.53751 8.43002C9.63528 8.52384 9.75664 8.58943 9.88869 8.6198C10.0208 8.65017 10.1586 8.6442 10.2875 8.60252C11.0082 8.39693 11.7511 8.27859 12.5 8.25002C13.1741 8.26687 13.8427 8.37537 14.4875 8.57252C14.6132 8.61908 14.749 8.63112 14.8809 8.60737C15.0128 8.58363 15.136 8.52498 15.2375 8.43752C15.6745 8.07749 16.1873 7.82108 16.7375 7.68752C16.85 8.15839 16.85 8.64915 16.7375 9.12002C16.7082 9.2551 16.7149 9.39552 16.757 9.52717C16.7992 9.65882 16.8752 9.77707 16.9775 9.87002C17.4178 10.4872 17.608 11.2482 17.51 12C17.5277 12.4408 17.4545 12.8806 17.295 13.2919C17.1355 13.7033 16.8932 14.0774 16.583 14.3911C16.2728 14.7048 15.9014 14.9514 15.4919 15.1155C15.0824 15.2796 14.6435 15.3577 14.2025 15.345C14.0493 15.3445 13.8995 15.391 13.7735 15.4781C13.6475 15.5653 13.5511 15.689 13.4975 15.8325C13.4431 15.9761 13.434 16.1329 13.4716 16.2818C13.5092 16.4307 13.5915 16.5644 13.7075 16.665C14.15 17.0475 14.0825 19.665 14.06 20.685C14.0571 20.8015 14.0813 20.917 14.1308 21.0224C14.1802 21.1279 14.2536 21.2203 14.345 21.2925C14.4779 21.3957 14.6417 21.4512 14.81 21.45C14.8723 21.4573 14.9352 21.4573 14.9975 21.45C17.3094 20.8634 19.3261 19.4497 20.6659 17.4764C22.0057 15.5031 22.5757 13.1071 22.2681 10.7418C21.9604 8.37661 20.7964 6.20619 18.9963 4.64132C17.1963 3.07644 14.885 2.22568 12.5 2.25002Z" fill="#080800"/>
</svg>
