<svg width="72" height="72" viewBox="0 0 72 72" fill="none" xmlns="http://www.w3.org/2000/svg">
<path d="M18 18L36 34.4726L54 18L37.5274 36L54 54L36 37.5274L18 54L34.4726 36L18 18Z" fill="#080800"/>
<path d="M36.0008 10.5439C44 10.5439 36.1808 35.8198 36.1808 35.8198C36.1808 35.8198 61.4566 27.9996 61.4566 35.9998C61.4566 44 36.1808 36.1798 36.1808 36.1798C36.1808 36.1798 44 61.4556 36.0008 61.4556C28.0015 61.4556 35.8208 36.1798 35.8208 36.1798C35.8208 36.1798 10.5449 43.9996 10.5449 35.9998C10.5449 28 35.8208 35.8198 35.8208 35.8198C35.8208 35.8198 28.0015 10.5439 36.0008 10.5439Z" fill="#080800"/>
</svg>
