<svg width="32" height="32" viewBox="0 0 32 32" fill="none" xmlns="http://www.w3.org/2000/svg">
<path fill-rule="evenodd" clip-rule="evenodd" d="M16 9.66663C17.9909 9.66663 19.5 11.1714 19.5 12.9019C19.5 14.6325 17.9909 16.1372 16 16.1372C14.0091 16.1372 12.5 14.6325 12.5 12.9019C12.5 11.1714 14.0091 9.66663 16 9.66663ZM21.5 12.9019C21.5 9.95431 18.9796 7.66663 16 7.66663C13.0204 7.66663 10.5 9.95431 10.5 12.9019C10.5 15.8496 13.0204 18.1372 16 18.1372C18.9796 18.1372 21.5 15.8496 21.5 12.9019Z" fill="#2D2D26"/>
<path fill-rule="evenodd" clip-rule="evenodd" d="M16 18.1373C19.0499 18.1373 21.6065 19.9499 22.5769 22.4263C22.6935 22.7233 22.6323 22.9831 22.4272 23.2137C22.2009 23.4681 21.8008 23.6668 21.3333 23.6668H10.6666C10.1991 23.6668 9.79892 23.4681 9.57275 23.2137C9.36763 22.9831 9.30647 22.7233 9.42292 22.4263C10.3934 19.9499 12.9501 18.1373 16 18.1373ZM24.4391 21.6965C23.1568 18.4241 19.8404 16.1373 16 16.1373C12.1595 16.1373 8.84315 18.4241 7.5608 21.6965C7.1399 22.7705 7.42972 23.8136 8.07815 24.5428C8.7055 25.2483 9.66136 25.6668 10.6666 25.6668H21.3333C22.3385 25.6668 23.2944 25.2483 23.9217 24.5428C24.5701 23.8136 24.86 22.7705 24.4391 21.6965ZM22.6668 9C24.1651 9 25.4831 10.3105 25.4831 12.0588C25.4831 13.8071 24.1651 15.1176 22.6668 15.1176C22.1145 15.1176 21.6668 15.5653 21.6668 16.1176C21.6668 16.67 22.1145 17.1176 22.6668 17.1176C25.3839 17.1176 27.4831 14.7939 27.4831 12.0588C27.4831 9.32385 25.3839 7 22.6668 7C22.1145 7 21.6668 7.44772 21.6668 8C21.6668 8.55228 22.1145 9 22.6668 9Z" fill="#2D2D26"/>
<path fill-rule="evenodd" clip-rule="evenodd" d="M22.6674 17.1175C25.8048 17.1175 28.4519 19.8415 28.4519 23.3332C28.4519 23.8855 28.8996 24.3332 29.4519 24.3332C30.0042 24.3332 30.4519 23.8855 30.4519 23.3332C30.4519 18.8548 27.0238 15.1175 22.6674 15.1175C22.1151 15.1175 21.6674 15.5652 21.6674 16.1175C21.6674 16.6697 22.1151 17.1175 22.6674 17.1175ZM9.45173 9C7.95349 9 6.63544 10.3105 6.63544 12.0588C6.63544 13.8071 7.95349 15.1176 9.45173 15.1176C10.004 15.1176 10.4517 15.5653 10.4517 16.1176C10.4517 16.67 10.004 17.1176 9.45173 17.1176C6.73461 17.1176 4.63544 14.7939 4.63544 12.0588C4.63544 9.32385 6.73461 7 9.45173 7C10.004 7 10.4517 7.44772 10.4517 8C10.4517 8.55228 10.004 9 9.45173 9Z" fill="#2D2D26"/>
<path fill-rule="evenodd" clip-rule="evenodd" d="M9.45121 17.1174C6.31366 17.1174 3.66669 19.8414 3.66669 23.3332C3.66669 23.8854 3.21897 24.3332 2.66669 24.3332C2.11441 24.3332 1.66669 23.8854 1.66669 23.3332C1.66669 18.8548 5.09478 15.1174 9.45121 15.1174C10.0035 15.1174 10.4512 15.5652 10.4512 16.1174C10.4512 16.6697 10.0035 17.1174 9.45121 17.1174Z" fill="#2D2D26"/>
</svg>
