<svg width="32" height="33" viewBox="0 0 32 33" fill="none" xmlns="http://www.w3.org/2000/svg">
<path d="M0.5 8.25C0.5 4.10786 3.85786 0.75 8 0.75H24C28.1421 0.75 31.5 4.10786 31.5 8.25V24.25C31.5 28.3921 28.1421 31.75 24 31.75H8C3.85786 31.75 0.5 28.3921 0.5 24.25V8.25Z" stroke="#2D2D26"/>
<path d="M12.6568 18.752L11.8828 21.704C11.8828 21.782 11.8348 21.8 11.7328 21.8H10.2928C10.1908 21.8 10.1728 21.77 10.1908 21.65L12.9808 11.888C13.0478 11.6211 13.082 11.3471 13.0828 11.072C13.0828 11.006 13.0828 10.976 13.1608 10.976H15.2128C15.2848 10.976 15.3148 10.976 15.3328 11.072L18.4588 21.674C18.4588 21.752 18.4588 21.8 18.3808 21.8H16.7548C16.6768 21.8 16.6288 21.8 16.6048 21.71L15.8128 18.752H12.6568ZM15.3868 17.162C15.1108 16.076 14.4628 13.694 14.2168 12.548C14.0128 13.694 13.4908 15.638 13.0768 17.162H15.3868ZM19.8088 11.702C19.8088 11.4362 19.9143 11.1813 20.1023 10.9934C20.2902 10.8055 20.545 10.7 20.8108 10.7C21.0765 10.7 21.3314 10.8055 21.5193 10.9934C21.7072 11.1813 21.8128 11.4362 21.8128 11.702C21.823 11.8377 21.8034 11.974 21.7555 12.1014C21.7076 12.2289 21.6324 12.3443 21.5353 12.4397C21.4382 12.5351 21.3215 12.6081 21.1932 12.6538C21.065 12.6994 20.9283 12.7165 20.7928 12.704C20.6596 12.7131 20.5261 12.6933 20.4013 12.646C20.2766 12.5986 20.1635 12.5248 20.07 12.4296C19.9765 12.3343 19.9047 12.22 19.8596 12.0944C19.8145 11.9688 19.7972 11.8349 19.8088 11.702ZM19.9288 13.934C19.9288 13.856 19.9588 13.814 20.0428 13.814H21.5848C21.6628 13.814 21.7048 13.844 21.7048 13.934V21.68C21.7048 21.758 21.7048 21.8 21.5848 21.8H20.0668C19.9648 21.8 19.9348 21.752 19.9348 21.674V13.934H19.9288Z" fill="#2D2D26"/>
</svg>
