<svg width="1017" height="197" viewBox="0 0 1017 197" fill="none" xmlns="http://www.w3.org/2000/svg">
<path d="M41.08 149.733L38.59 97.9967L131.273 0.333327H181.073L97.52 90.25L72.62 116.81L41.08 149.733ZM0.963334 194V0.333327H45.5067V194H0.963334ZM133.487 194L64.5967 109.617L93.9233 77.8L185.777 194H133.487ZM267.331 196.213C251.468 196.213 237.358 192.893 225.001 186.253C212.827 179.613 203.144 170.576 195.951 159.14C188.942 147.52 185.437 134.332 185.437 119.577C185.437 104.637 188.942 91.4489 195.951 80.0133C203.144 68.3933 212.827 59.3556 225.001 52.9C237.358 46.26 251.468 42.94 267.331 42.94C283.008 42.94 297.026 46.26 309.384 52.9C321.742 59.3556 331.425 68.3011 338.434 79.7367C345.443 91.1722 348.947 104.452 348.947 119.577C348.947 134.332 345.443 147.52 338.434 159.14C331.425 170.576 321.742 179.613 309.384 186.253C297.026 192.893 283.008 196.213 267.331 196.213ZM267.331 160.8C274.524 160.8 280.98 159.14 286.697 155.82C292.415 152.5 296.934 147.797 300.254 141.71C303.574 135.439 305.234 128.061 305.234 119.577C305.234 110.908 303.574 103.53 300.254 97.4433C296.934 91.3567 292.415 86.6533 286.697 83.3333C280.98 80.0133 274.524 78.3533 267.331 78.3533C260.137 78.3533 253.682 80.0133 247.964 83.3333C242.246 86.6533 237.635 91.3567 234.131 97.4433C230.811 103.53 229.151 110.908 229.151 119.577C229.151 128.061 230.811 135.439 234.131 141.71C237.635 147.797 242.246 152.5 247.964 155.82C253.682 159.14 260.137 160.8 267.331 160.8ZM440.6 196.213C428.242 196.213 417.175 193.816 407.4 189.02C397.809 184.224 390.339 176.939 384.99 167.163C379.641 157.203 376.966 144.569 376.966 129.26V45.1533H420.126V122.897C420.126 135.254 422.709 144.384 427.873 150.287C433.222 156.004 440.692 158.863 450.283 158.863C456.923 158.863 462.825 157.48 467.99 154.713C473.154 151.762 477.212 147.336 480.163 141.433C483.114 135.347 484.59 127.784 484.59 118.747V45.1533H527.75V194H486.803V153.053L494.273 164.95C489.293 175.279 481.915 183.118 472.14 188.467C462.549 193.631 452.035 196.213 440.6 196.213ZM628.601 196.213C611.079 196.213 597.43 191.787 587.654 182.933C577.879 173.896 572.991 160.523 572.991 142.817V12.23H616.151V142.263C616.151 148.534 617.811 153.422 621.131 156.927C624.451 160.247 628.97 161.907 634.688 161.907C641.512 161.907 647.322 160.062 652.118 156.373L663.738 186.807C659.311 189.942 653.962 192.34 647.691 194C641.604 195.476 635.241 196.213 628.601 196.213ZM550.028 81.6733V48.4733H653.224V81.6733H550.028ZM754.199 196.213C738.337 196.213 724.227 192.893 711.869 186.253C699.696 179.613 690.012 170.576 682.819 159.14C675.81 147.52 672.306 134.332 672.306 119.577C672.306 104.637 675.81 91.4489 682.819 80.0133C690.012 68.3933 699.696 59.3556 711.869 52.9C724.227 46.26 738.337 42.94 754.199 42.94C769.877 42.94 783.895 46.26 796.252 52.9C808.61 59.3556 818.294 68.3011 825.302 79.7367C832.311 91.1722 835.816 104.452 835.816 119.577C835.816 134.332 832.311 147.52 825.302 159.14C818.294 170.576 808.61 179.613 796.252 186.253C783.895 192.893 769.877 196.213 754.199 196.213ZM754.199 160.8C761.392 160.8 767.848 159.14 773.566 155.82C779.284 152.5 783.802 147.797 787.122 141.71C790.442 135.439 792.102 128.061 792.102 119.577C792.102 110.908 790.442 103.53 787.122 97.4433C783.802 91.3567 779.284 86.6533 773.566 83.3333C767.848 80.0133 761.392 78.3533 754.199 78.3533C747.006 78.3533 740.55 80.0133 734.832 83.3333C729.115 86.6533 724.504 91.3567 720.999 97.4433C717.679 103.53 716.019 110.908 716.019 119.577C716.019 128.061 717.679 135.439 720.999 141.71C724.504 147.797 729.115 152.5 734.832 155.82C740.55 159.14 747.006 160.8 754.199 160.8ZM955.135 42.94C966.939 42.94 977.453 45.3378 986.675 50.1333C996.081 54.7444 1003.46 61.9378 1008.81 71.7133C1014.16 81.3044 1016.83 93.6622 1016.83 108.787V194H973.671V115.427C973.671 103.438 970.997 94.5844 965.648 88.8667C960.484 83.1489 953.106 80.29 943.515 80.29C936.69 80.29 930.511 81.7656 924.978 84.7167C919.629 87.4833 915.387 91.8178 912.251 97.72C909.3 103.622 907.825 111.184 907.825 120.407V194H864.665V45.1533H905.888V86.3767L898.141 73.9267C903.49 63.9667 911.145 56.3122 921.105 50.9633C931.065 45.6144 942.408 42.94 955.135 42.94Z" fill="#C58036"/>
</svg>
