<svg width="32" height="32" viewBox="0 0 32 32" fill="none" xmlns="http://www.w3.org/2000/svg">
<rect width="32" height="32" fill="#636363"/>
<g id="Desktop - 3" clip-path="url(#clip0_0_1)">
<rect width="1440" height="6494" transform="translate(-100 -2125)" fill="#DADAD4"/>
<g id="Frame 15">
<mask id="path-1-inside-1_0_1" fill="white">
<path d="M-100 -280H1340V272H-100V-280Z"/>
</mask>
<path d="M1340 271H-100V273H1340V271Z" fill="#B5B5B2" mask="url(#path-1-inside-1_0_1)"/>
<g id="Frame 19">
<g id="Frame 18">
<g id="Frame 14">
<g id="Painting">
<path id="Vector" d="M28.484 3.51864C27.9804 3.01022 27.3057 2.70721 26.591 2.66853C25.8764 2.62984 25.173 2.85823 24.6174 3.30931L16 10.108C15.9594 10.1404 15.9206 10.1751 15.884 10.212C15.1597 10.9406 14.732 11.9124 14.684 12.9386C14.5574 12.9293 14.4347 12.9013 14.3067 12.9013C13.6317 12.9007 12.9637 13.0367 12.3427 13.3011C11.7217 13.5656 11.1607 13.953 10.6934 14.44C9.15069 16.032 6.61602 21.2133 8.93336 23.6C9.12923 23.8005 9.38334 23.9343 9.65957 23.9821C9.93579 24.03 10.2201 23.9896 10.472 23.8666C11.4664 23.4038 12.5617 23.2001 13.656 23.2746C14.4357 23.3629 15.2253 23.2736 15.9656 23.0134C16.7059 22.7532 17.3777 22.3288 17.9307 21.772C18.4943 21.1835 18.9138 20.4722 19.156 19.6941C19.3982 18.9161 19.4567 18.0924 19.3267 17.288C20.2589 17.1883 21.1294 16.7739 21.7947 16.1133C21.8289 16.0775 21.861 16.0396 21.8907 16L28.6774 7.41064C29.1363 6.85464 29.3709 6.14721 29.3351 5.42717C29.2993 4.70713 28.9958 4.02643 28.484 3.51864ZM16.0107 19.9186C15.7017 20.2154 15.3258 20.4333 14.9148 20.554C14.5038 20.6747 14.0697 20.6946 13.6494 20.612C12.6376 20.574 11.6259 20.6882 10.648 20.9506C10.8266 19.2396 11.5108 17.6205 12.6134 16.3C12.8327 16.0703 13.0963 15.8874 13.3882 15.7623C13.6802 15.6371 13.9944 15.5724 14.312 15.572C14.6294 15.5724 14.9435 15.6372 15.2352 15.7623C15.5269 15.8874 15.7902 16.0703 16.0094 16.3C16.4746 16.7863 16.7344 17.4333 16.7346 18.1064C16.7348 18.7794 16.4756 19.4266 16.0107 19.9133V19.9186ZM26.6 5.73331L19.8534 14.2666C19.5635 14.5207 19.189 14.6569 18.8036 14.6483C18.4183 14.6396 18.0502 14.4868 17.772 14.22C17.5009 13.9448 17.3457 13.576 17.3385 13.1897C17.3313 12.8034 17.4726 12.4291 17.7334 12.144L26.284 5.38664C26.3288 5.3496 26.3858 5.33069 26.4438 5.33365C26.5018 5.33661 26.5566 5.36123 26.5974 5.40264C26.6401 5.44691 26.6642 5.50591 26.6647 5.56745C26.6652 5.62898 26.6421 5.68836 26.6 5.73331Z" fill="#2D2D26"/>
<path id="Vector_2" d="M25.3334 14.6667C24.9797 14.6667 24.6406 14.8072 24.3905 15.0572C24.1405 15.3073 24 15.6464 24 16V22.6667C24 23.7276 23.5786 24.745 22.8284 25.4951C22.0783 26.2453 21.0609 26.6667 20 26.6667H9.33335C8.27249 26.6667 7.25507 26.2453 6.50493 25.4951C5.75478 24.745 5.33335 23.7276 5.33335 22.6667V12C5.33335 10.9392 5.75478 9.92176 6.50493 9.17161C7.25507 8.42147 8.27249 8.00004 9.33335 8.00004H16C16.3536 8.00004 16.6928 7.85956 16.9428 7.60952C17.1929 7.35947 17.3334 7.02033 17.3334 6.66671C17.3334 6.31309 17.1929 5.97395 16.9428 5.7239C16.6928 5.47385 16.3536 5.33337 16 5.33337H9.33335C7.56589 5.33549 5.87143 6.03855 4.62165 7.28833C3.37186 8.53812 2.6688 10.2326 2.66669 12V22.6667C2.6688 24.4342 3.37186 26.1286 4.62165 27.3784C5.87143 28.6282 7.56589 29.3313 9.33335 29.3334H20C21.7675 29.3313 23.4619 28.6282 24.7117 27.3784C25.9615 26.1286 26.6646 24.4342 26.6667 22.6667V16C26.6667 15.6464 26.5262 15.3073 26.2762 15.0572C26.0261 14.8072 25.687 14.6667 25.3334 14.6667Z" fill="#2D2D26"/>
</g>
</g>
</g>
</g>
</g>
</g>
<defs>
<clipPath id="clip0_0_1">
<rect width="1440" height="6494" fill="white" transform="translate(-100 -2125)"/>
</clipPath>
</defs>
</svg>
