<svg width="32" height="33" viewBox="0 0 32 33" fill="none" xmlns="http://www.w3.org/2000/svg">
<path d="M0.5 8.25C0.5 4.10786 3.85786 0.75 8 0.75H24C28.1421 0.75 31.5 4.10786 31.5 8.25V24.25C31.5 28.3921 28.1421 31.75 24 31.75H8C3.85786 31.75 0.5 28.3921 0.5 24.25V8.25Z" stroke="#2D2D26"/>
<path d="M12.559 10.7645C11.587 10.7645 10.663 10.7645 10.033 10.8125C9.95499 10.8125 9.81699 10.8605 9.81699 10.9325V21.4445C9.81699 21.5345 9.85899 21.5645 9.93699 21.5645H11.431C11.521 21.5645 11.551 21.5225 11.551 21.4445V17.6885H12.313C14.527 17.6885 16.327 16.6205 16.327 14.1365C16.327 12.2525 15.271 10.7645 12.559 10.7645ZM12.355 16.1645C12.0912 16.1795 11.8268 16.1795 11.563 16.1645V12.3485C11.737 12.3485 12.109 12.3185 12.499 12.3185C13.801 12.3185 14.575 12.9485 14.575 14.1905C14.575 15.7445 13.495 16.1645 12.355 16.1645ZM22.183 19.3325C22.183 20.8985 20.983 21.7325 19.363 21.7325C18.6688 21.758 17.9789 21.6139 17.353 21.3125C17.287 21.2825 17.275 21.2345 17.275 21.1565V19.7045C17.275 19.6085 17.323 19.5785 17.395 19.6265C17.9798 20.0112 18.663 20.2195 19.363 20.2265C20.143 20.2265 20.467 19.9025 20.467 19.4585C20.467 19.0145 20.239 18.7925 19.267 18.2585C17.875 17.5925 17.293 16.9145 17.293 15.7865C17.293 14.5205 18.283 13.4705 19.999 13.4705C20.5976 13.4433 21.1955 13.5372 21.757 13.7465C21.7888 13.7669 21.8145 13.7955 21.8314 13.8293C21.8483 13.8631 21.8557 13.9008 21.853 13.9385V15.2825C21.853 15.3665 21.805 15.4145 21.709 15.3845C21.1823 15.089 20.5846 14.9438 19.981 14.9645C19.207 14.9645 18.943 15.3605 18.943 15.6845C18.943 16.0085 19.123 16.2845 20.143 16.8185C21.703 17.5505 22.183 18.2645 22.183 19.3145V19.3325Z" fill="#2D2D26"/>
</svg>
