<svg width="24" height="24" viewBox="0 0 24 24" fill="none" xmlns="http://www.w3.org/2000/svg">
<g clip-path="url(#clip0_108_413)">
<path d="M21.75 9H15.75C15.1533 9 14.581 9.23705 14.159 9.65901C13.7371 10.081 13.5 10.6533 13.5 11.25V12H2.25V2.25C2.25 2.05109 2.32902 1.86032 2.46967 1.71967C2.61032 1.57902 2.80109 1.5 3 1.5H18C18.1989 1.5 18.3897 1.57902 18.5303 1.71967C18.671 1.86032 18.75 2.05109 18.75 2.25V6.75C18.75 6.94891 18.829 7.13968 18.9697 7.28033C19.1103 7.42098 19.3011 7.5 19.5 7.5C19.6989 7.5 19.8897 7.42098 20.0303 7.28033C20.171 7.13968 20.25 6.94891 20.25 6.75V2.25C20.25 1.65326 20.0129 1.08097 19.591 0.65901C19.169 0.237053 18.5967 0 18 0L3 0C2.40326 0 1.83097 0.237053 1.40901 0.65901C0.987053 1.08097 0.75 1.65326 0.75 2.25V12C0.551088 12 0.360322 12.079 0.21967 12.2197C0.0790176 12.3603 0 12.5511 0 12.75L0 14.25C0 14.8467 0.237053 15.419 0.65901 15.841C1.08097 16.2629 1.65326 16.5 2.25 16.5H13.5V21.75C13.5 22.3467 13.7371 22.919 14.159 23.341C14.581 23.7629 15.1533 24 15.75 24H21.75C22.3467 24 22.919 23.7629 23.341 23.341C23.7629 22.919 24 22.3467 24 21.75V11.25C24 10.6533 23.7629 10.081 23.341 9.65901C22.919 9.23705 22.3467 9 21.75 9ZM2.25 15C2.05109 15 1.86032 14.921 1.71967 14.7803C1.57902 14.6397 1.5 14.4489 1.5 14.25V13.5H13.5V15H2.25ZM22.5 21.75C22.5 21.9489 22.421 22.1397 22.2803 22.2803C22.1397 22.421 21.9489 22.5 21.75 22.5H15.75C15.5511 22.5 15.3603 22.421 15.2197 22.2803C15.079 22.1397 15 21.9489 15 21.75V11.25C15 11.0511 15.079 10.8603 15.2197 10.7197C15.3603 10.579 15.5511 10.5 15.75 10.5H21.75C21.9489 10.5 22.1397 10.579 22.2803 10.7197C22.421 10.8603 22.5 11.0511 22.5 11.25V21.75Z" fill="#2D2D26"/>
<path d="M18.75 21C18.6017 21 18.4567 20.956 18.3333 20.8736C18.21 20.7912 18.1139 20.6741 18.0571 20.537C18.0003 20.4 17.9855 20.2492 18.0144 20.1037C18.0434 19.9582 18.1148 19.8246 18.2197 19.7197C18.3246 19.6148 18.4582 19.5434 18.6037 19.5144C18.7492 19.4855 18.9 19.5003 19.037 19.5571C19.1741 19.6139 19.2912 19.71 19.3736 19.8333C19.456 19.9567 19.5 20.1017 19.5 20.25C19.5 20.4489 19.421 20.6397 19.2803 20.7803C19.1397 20.921 18.9489 21 18.75 21Z" fill="#2D2D26"/>
</g>
<defs>
<clipPath id="clip0_108_413">
<rect width="24" height="24" fill="white"/>
</clipPath>
</defs>
</svg>
