<svg width="32" height="33" viewBox="0 0 32 33" fill="none" xmlns="http://www.w3.org/2000/svg">
<path d="M0.5 8.25C0.5 4.10786 3.85786 0.75 8 0.75H24C28.1421 0.75 31.5 4.10786 31.5 8.25V24.25C31.5 28.3921 28.1421 31.75 24 31.75H8C3.85786 31.75 0.5 28.3921 0.5 24.25V8.25Z" stroke="#2D2D26"/>
<path d="M22.5 13.76C21.7501 13.5017 21.0881 13.0372 20.59 12.42C20.041 11.7322 19.3421 11.1791 18.5465 10.803C17.7509 10.4269 16.8799 10.2377 16 10.25C14.8164 10.1661 13.6446 10.5312 12.718 11.2725C11.7914 12.0137 11.178 13.0768 11 14.25C11.3507 13.6632 11.8785 13.2028 12.5074 12.9351C13.1363 12.6673 13.834 12.606 14.5 12.76C15.2487 13.0258 15.9096 13.4929 16.41 14.11C16.962 14.7922 17.6623 15.3396 18.4577 15.7104C19.2531 16.0813 20.1226 16.2658 21 16.25C22.1836 16.3338 23.3554 15.9687 24.282 15.2275C25.2086 14.4862 25.822 13.4231 26 12.25C25.6557 12.8437 25.1296 13.3111 24.4994 13.583C23.8691 13.8549 23.1682 13.9169 22.5 13.76ZM9.5 18.74C10.2499 18.9983 10.9119 19.4627 11.41 20.08C11.959 20.7677 12.6579 21.3208 13.4535 21.6969C14.2491 22.073 15.1201 22.2622 16 22.25C17.1836 22.3338 18.3554 21.9687 19.282 21.2275C20.2086 20.4862 20.822 19.4231 21 18.25C20.6493 18.8367 20.1215 19.2971 19.4926 19.5648C18.8637 19.8326 18.166 19.8939 17.5 19.74C16.7513 19.4742 16.0904 19.007 15.59 18.39C15.0366 17.7094 14.336 17.1632 13.5409 16.7925C12.7459 16.4218 11.8771 16.2363 11 16.25C9.81637 16.1661 8.64458 16.5312 7.71801 17.2725C6.79143 18.0137 6.17804 19.0768 6 20.25C6.34431 19.6562 6.87041 19.1889 7.50063 18.917C8.13086 18.6451 8.83181 18.583 9.5 18.74Z" fill="#2D2D26"/>
</svg>
