<svg width="79" height="22" viewBox="0 0 79 22" fill="none" xmlns="http://www.w3.org/2000/svg">
<path fill-rule="evenodd" clip-rule="evenodd" d="M49.7605 17.2873L42.9132 2.07517L38.8881 2.08238L46.6685 20.6685L49.7605 17.2873Z" fill="url(#paint0_linear_446_5569)"/>
<path fill-rule="evenodd" clip-rule="evenodd" d="M32.0167 17.2073L38.7645 2.07517L42.7896 2.08238L34.8097 20.6283L32.0167 17.2073Z" fill="url(#paint1_linear_446_5569)"/>
<path fill-rule="evenodd" clip-rule="evenodd" d="M32.0167 17.1968L34.8097 20.618H46.5799L45.1499 17.1968H32.0167Z" fill="url(#paint2_linear_446_5569)"/>
<path d="M21.9615 18.7702H28.4817V20.7533H19.5298V2.07517H21.9615V18.7702ZM3.52716 2.07517V13.893C3.52716 15.5545 3.93244 16.7872 4.74301 17.5911C5.55359 18.3951 6.68036 18.797 8.12332 18.797C9.5485 18.797 10.6664 18.3951 11.4769 17.5911C12.2875 16.7872 12.6928 15.5545 12.6928 13.893V2.07517H15.1245V13.8662C15.1245 15.4205 14.8127 16.7291 14.1892 17.7921C13.5657 18.8551 12.724 19.6456 11.664 20.1637C10.604 20.6819 9.41492 20.9409 8.09664 20.9409C6.77833 20.9409 5.58919 20.6819 4.52924 20.1637C3.46924 19.6456 2.63198 18.8551 2.01736 17.7921C1.40276 16.7291 1.09546 15.4205 1.09546 13.8662V2.07517H3.52716Z" fill="#364655" stroke="#364655" stroke-width="0.934988"/>
<path d="M64.499 10.8993C64.499 7.8265 64.9977 5.42808 65.9955 3.70407C66.9931 1.98009 68.7389 1.11809 71.2329 1.11809C73.7091 1.11809 75.4461 1.98009 76.4437 3.70407C77.4414 5.42808 77.9401 7.8265 77.9401 10.8993C77.9401 14.0257 77.4414 16.4554 76.4437 18.1884C75.4461 19.9213 73.7091 20.7877 71.2329 20.7877C68.7389 20.7877 66.9931 19.9213 65.9955 18.1884C64.9977 16.4554 64.499 14.0257 64.499 10.8993ZM75.5352 10.8993C75.5352 9.34502 75.4328 8.02749 75.2279 6.94662C75.023 5.86576 74.6042 4.99484 73.972 4.33382C73.3395 3.67282 72.4265 3.34231 71.2329 3.34231C70.0214 3.34231 69.0997 3.67282 68.4672 4.33382C67.8349 4.99486 67.4161 5.86576 67.2113 6.94662C67.0064 8.02749 66.9039 9.34502 66.9039 10.8993C66.9039 12.5072 67.0064 13.856 67.2113 14.9458C67.4161 16.0356 67.8349 16.911 68.4672 17.572C69.0997 18.233 70.0214 18.5635 71.2329 18.5635C72.4265 18.5635 73.3395 18.233 73.972 17.572C74.6042 16.911 75.023 16.0356 75.2279 14.9458C75.4328 13.856 75.5352 12.5072 75.5352 10.8993ZM55.4441 18.8047H61.9642V20.7877H53.0123V2.10961H55.4441V18.8047Z" fill="#364655" stroke="#364655" stroke-width="0.934988"/>
<defs>
<linearGradient id="paint0_linear_446_5569" x1="44.3242" y1="20.6685" x2="44.3242" y2="2.07517" gradientUnits="userSpaceOnUse">
<stop stop-color="#8DF3B2"/>
<stop offset="1" stop-color="#1BE866"/>
</linearGradient>
<linearGradient id="paint1_linear_446_5569" x1="37.4031" y1="20.6283" x2="37.4031" y2="2.07517" gradientUnits="userSpaceOnUse">
<stop stop-color="#1BE866"/>
<stop offset="1" stop-color="#8DF3B2"/>
</linearGradient>
<linearGradient id="paint2_linear_446_5569" x1="32.0167" y1="17.1968" x2="46.5799" y2="17.1968" gradientUnits="userSpaceOnUse">
<stop stop-color="#8DF3B2"/>
<stop offset="1" stop-color="#1BE866"/>
</linearGradient>
</defs>
</svg>
