<svg width="19" height="20" viewBox="0 0 19 20" fill="none" xmlns="http://www.w3.org/2000/svg">
<path d="M6.85938 15.8958H7.35938V15.3958V9.68442V8.18854V7.68854H6.85938H4.35417H3.85417V8.18854V15.3958V15.8958H4.35417H6.85938ZM12.4712 7.68777C11.8369 7.68777 11.2769 7.81856 10.8281 8.0514V7.68854H10.3281H8.32396H7.82396V8.18854V15.3958V15.8958H8.32396H10.4052H10.9052V15.3958V11.8345C10.9052 11.3714 10.9532 11.0198 11.0775 10.7933C11.1331 10.6919 11.201 10.6217 11.2888 10.573C11.3795 10.5226 11.5214 10.4785 11.7478 10.4785C11.9544 10.4785 12.0741 10.5259 12.1475 10.5752C12.2224 10.6255 12.2874 10.7034 12.3416 10.8254C12.4601 11.0922 12.4875 11.4727 12.4875 11.895V15.3958V15.8958H12.9875H15.1458H15.6458V15.3958V11.9646H15.66V11.4646C15.66 11.0667 15.6439 10.7001 15.5999 10.3532C15.5079 9.62187 15.2842 8.93104 14.757 8.42977C14.2241 7.92302 13.4642 7.68777 12.4712 7.68777ZM2.87116 1.25H16.6288C17.6556 1.25 18.5 2.09453 18.5 3.12112V16.8789C18.5 17.9054 17.6556 18.75 16.6288 18.75H2.87116C1.84446 18.75 1 17.9054 1 16.8788V3.12112C1 2.09455 1.84445 1.25 2.87116 1.25ZM3.83929 5.85184C3.83929 6.82546 4.62878 7.61431 5.60176 7.61431C6.57578 7.61431 7.36466 6.82542 7.36466 5.85184C7.36466 4.87785 6.57542 4.08994 5.60176 4.08994C4.62911 4.08994 3.83929 4.87777 3.83929 5.85184Z" stroke="#080800"/>
</svg>
