<svg width="20" height="20" viewBox="0 0 20 20" fill="none" xmlns="http://www.w3.org/2000/svg">
<path d="M7.10938 15.8958H7.60938V15.3958V9.68442V8.18854V7.68854H7.10938H4.60417H4.10417V8.18854V15.3958V15.8958H4.60417H7.10938ZM12.7212 7.68777C12.0869 7.68777 11.5269 7.81856 11.0781 8.0514V7.68854H10.5781H8.57396H8.07396V8.18854V15.3958V15.8958H8.57396H10.6552H11.1552V15.3958V11.8345C11.1552 11.3714 11.2032 11.0198 11.3275 10.7933C11.3831 10.6919 11.451 10.6217 11.5388 10.573C11.6295 10.5226 11.7714 10.4785 11.9978 10.4785C12.2044 10.4785 12.3241 10.5259 12.3975 10.5752C12.4724 10.6255 12.5374 10.7034 12.5916 10.8254C12.7101 11.0922 12.7375 11.4727 12.7375 11.895V15.3958V15.8958H13.2375H15.3958H15.8958V15.3958V11.9646H15.91V11.4646C15.91 11.0667 15.8939 10.7001 15.8499 10.3532C15.7579 9.62187 15.5342 8.93104 15.007 8.42977C14.4741 7.92302 13.7142 7.68777 12.7212 7.68777ZM3.12116 1.25H16.8788C17.9056 1.25 18.75 2.09453 18.75 3.12112V16.8789C18.75 17.9054 17.9056 18.75 16.8788 18.75H3.12116C2.09446 18.75 1.25 17.9054 1.25 16.8788V3.12112C1.25 2.09455 2.09445 1.25 3.12116 1.25ZM4.08929 5.85184C4.08929 6.82546 4.87878 7.61431 5.85176 7.61431C6.82578 7.61431 7.61466 6.82542 7.61466 5.85184C7.61466 4.87785 6.82542 4.08994 5.85176 4.08994C4.87911 4.08994 4.08929 4.87777 4.08929 5.85184Z" stroke="#DADAD4"/>
</svg>
